<svg xmlns="http://www.w3.org/2000/svg" viewBox="0 0 300.58 287.29"><defs><style>.cls-1{fill:#f6da5e;}.cls-2{fill:#ff8e00;stroke:#fff;stroke-miterlimit:10;stroke-width:2px;}</style></defs><title>piouhello</title><g id="Calque_3" data-name="Calque 3"><path class="cls-1" d="M286.39,248.43a81.27,81.27,0,0,0-23.87,2.35,89.34,89.34,0,0,0-32.48,16,106.5,106.5,0,0,0-25.82,28.95c-12.67,20.65-15.16,40-16.44,50.87a136.58,136.58,0,0,0,.79,38c1.32,8.12,3.23,19.29,9.78,32.48a100.14,100.14,0,0,0,19.56,27,107.23,107.23,0,0,0,25.44,18A115.15,115.15,0,0,0,277,473a121.18,121.18,0,0,0,46.57.39,119.62,119.62,0,0,0,39.91-15.65c8.32-5,22.1-13.35,32.87-28.95,7-10.08,8.8-17.58,9.39-20.35,1.39-6.58,1.1-11.93.78-17.61-.47-8.53-.71-12.8-3.13-15.65-3.54-4.17-7.09-2.28-16-7.83a31.94,31.94,0,0,1-8.61-7c-1-1.17-4.42-5.56-6.26-14.09-1.57-7.26-.06-8.69-.39-19.56-.26-8.4-.46-15.12-3.52-22.7-.61-1.51-1.42-3.25-9-14.48s-11.29-16.69-12.92-18.39c-8.29-8.65-17.65-12.26-25.43-15.26-9.62-3.71-18.44-5.13-25.44-6.26A88.24,88.24,0,0,0,286.39,248.43Z" transform="translate(-110.36 -245.42)"/></g><g id="Calque_4" data-name="Calque 4"><path class="cls-2" d="M227.7,350.17c1.17-3.15,5.39-3,21.13-5.87,26.84-4.84,32.28-8.41,36.78-4.3,5.68,5.2,3.62,17,.78,23.48-.94,2.15-4.34,10-12.52,13.3-8.9,3.63-17.52-.49-23.87-3.52C238.86,367.94,225.29,356.61,227.7,350.17Z" transform="translate(-110.36 -245.42)"/></g><g id="Calque_2" data-name="Calque 2"><path class="cls-1" d="M196,343.91c-5.09-5.61-8.53-4.38-17.61-13.69-5.4-5.54-7.62-9.5-12.91-10.57a14.75,14.75,0,0,0-12.13,3.13c-5.58,4.82-4.95,13.05-4.31,21.52.6,7.91,1.62,21.3,12.13,31.7a43.09,43.09,0,0,0,15.26,9.39c7.62,3.05,15.69,6.28,21.14,3.13C207.43,382.81,207.63,356.74,196,343.91Z" transform="translate(-110.36 -245.42)"/></g><g id="Calque_1" data-name="Calque 1"><path d="M185.77,334.49c1.44-5.23,2.52-9.11,3.56-13,5.61-21,15.84-39.45,33-53,14.95-11.72,31.42-20.17,51.13-22.31,17.27-1.87,33.85-.71,49.49,6.16,18.2,8,33.26,19.86,43.62,37.7,7.45,12.84,9.83,26,9.22,40.41-.37,8.84-.63,17.7,4.74,25.82,3.13,4.74,7,8.33,12.14,9.14,17.22,2.68,18.86,15.21,18.07,28.45a75.45,75.45,0,0,1-8,29.42c-4.16,8.23-10.24,15.83-16.73,22.48-11.07,11.37-24.88,18.77-40,23.59-5.7,1.82-11.42,3.66-17,5.9a6.48,6.48,0,0,0-3.14,4.17c-2.73,12.62-5.2,25.29-7.76,37.95-.74,3.67-.09,5.9,4.43,6.35a89.94,89.94,0,0,1,15,3.07c1.53.42,2.67,2.25,4,3.43l-.4,1.48c-1.54.33-3.23,1.25-4.59.9-6.47-1.66-12.91-3.53-19.24-5.67a4.8,4.8,0,0,1-2.54-3.68c.32-10,.92-20,1.54-30,.25-4,1-8.08,1-12.11,0-1.39-1.82-3.89-2.93-4-11.46-.75-23-.85-34.42-1.69-3.93-.28-3.41.17-2.57,3.48,3.66,14.45,6.8,29,10,43.59.22,1-.47,3.11-1.19,3.36-6.94,2.35-13.95,4.54-21,6.43-1.05.27-2.59-1.3-3.9-2,1-1.19,1.8-3,3.07-3.46,5.9-2.08,11.94-3.77,18.24-5.69-2.14-6.59-4.35-12.93-6.26-19.35-2.38-8-4.32-16.21-6.87-24.18-.82-2.55-2-4.82-5.65-6-12.31-3.88-24.2-8.8-35.25-15.8-11.69-7.41-20.3-17.2-27.72-28.81-7.06-11.05-12.39-22.37-14.31-35.35-.15-1-2.31-2.22-3.66-2.41-19-2.74-29.9-15.34-36.27-31.79-3.09-8-4.29-17.16-1.65-26.15,2.18-7.41,6-12.89,13.94-14.57,7.68-1.63,13.57,1.7,18.47,7.2C180,327.06,182.43,330.32,185.77,334.49ZM307.5,472.25c4.09-.5,8.42-.29,12.21-1.63,11.9-4.2,23.68-8.77,35.34-13.61,14.59-6.05,25.94-16.4,35.58-28.59,9.33-11.82,11.64-26.29,13.84-40.6.79-5.13-5-11.41-10.53-12.59-14.35-3-25.48-14.74-25.14-31.29.16-7.88,1.32-16,.06-23.62-3.74-22.73-15.69-40.62-34.62-53.78-10.54-7.33-22.17-11.77-34.7-14.79-12.72-3.07-24.8-.89-36.85,2.1-15.9,3.94-27.58,14.85-39.75,25.1-17,14.31-25.88,32.71-29.64,54-3.29,18.68-2,37.29.49,56a67.83,67.83,0,0,0,9.31,26.68,178.69,178.69,0,0,0,22.21,28.83c10.95,11.72,24.49,18.35,39.23,22.05C278.46,470.05,307.44,472.49,307.5,472.25ZM183.58,350.57a44.18,44.18,0,0,1,.49-6.27c.39-2.64.82-3.82.11-5.19-.44-.85-.87-.92-2.66-2.63-1.19-1.14-1.73-1.81-2.72-2.88a97.4,97.4,0,0,0-8.1-7.94c-4.06-3.6-8.38-4.64-11.84-3.29s-5,5.07-6.09,7.87c-2.08,5.27-1.56,10-1,15.14a49.75,49.75,0,0,0,2.55,11.54,43,43,0,0,0,10.17,16.93,47.18,47.18,0,0,0,12.94,8.78c.79.34,1.3.41,2.67,1.05a5.14,5.14,0,0,0,2.19.72,3.76,3.76,0,0,0,1.44-.27c0-1.76-.05-3.53-.07-5.29Q183.52,364.61,183.58,350.57Z" transform="translate(-110.36 -245.42)"/><path d="M128.06,337.22c-7-5.14-7.41-14.8-1.73-25.82,4.69-9.09,14.52-15.25,21.45-12.75C132.88,307.2,127.89,320.79,128.06,337.22Z" transform="translate(-110.36 -245.42)"/><path d="M129.73,290.35c-5.18,4.8-10.34,9.63-15.58,14.36a4.06,4.06,0,0,1-2.39.75c-.63-1.19-1.73-2.89-1.3-3.74a36.86,36.86,0,0,1,5.34-8.15C119.22,289.75,125.6,288.67,129.73,290.35Z" transform="translate(-110.36 -245.42)"/><path d="M262.43,381c-10.24.38-19.7-6.33-28.2-14.65-4.34-4.25-8.06-9.14-11.89-13.88-2.11-2.6-.91-5.21,2.88-6,13.74-2.89,27.48-5.88,41.3-8.3,6.48-1.14,13.17-1,19.77-1.57,3.14-.26,4.52,1.45,5,4.24,2.52,13.25-1,24.95-9.81,34.85C277.33,380.4,271.07,381.06,262.43,381Zm18.95-38.34L231.1,353.71C245.22,369.7,273.07,362.5,281.38,342.64ZM256.26,370.5c16.52,4.19,23.21,0,26.43-12.06C275.22,365.86,266.1,368.93,256.26,370.5Z" transform="translate(-110.36 -245.42)"/><path d="M350.1,364.43c11.78.88,19.08,7.47,25.16,16.34,1.95,2.84,4.49,5.78,7.47,7.32,7.77,4,8.45,14.07,4.37,21.64-6.74,12.49-30,21.78-41.75,17.49a32.32,32.32,0,0,1-19-17.59c-8.45-18.09,1.24-33.94,14.18-41.85C343.34,366.05,346.89,365.52,350.1,364.43Zm33.16,38c-.52-4.4-1.79-7.32-5.81-8.58-4.95-1.55-7.89-5-10.28-9.56-2-3.82-5.06-7.19-8.1-10.33-5.71-5.9-14.4-5.79-19.51-.32-6.1,6.53-9.54,14.7-7.84,23.84,2.07,11.12,7.19,20.77,19.19,23.35,10.83,2.33,20.14-2.36,27.68-10.06C380.74,408.59,381.74,405.26,383.26,402.45Z" transform="translate(-110.36 -245.42)"/><path d="M320.82,319.13c-.09,5.09-6.38,10.41-12.17,10.31-5.23-.09-9.88-4.75-9.74-9.76s6.07-11.54,10.55-11.46C314.27,308.3,320.9,314.68,320.82,319.13Z" transform="translate(-110.36 -245.42)"/><path d="M224.47,319.63c.3-5.74,5.21-10,11.39-9.8,5,.13,9.94,4.63,9.6,8.77A11.53,11.53,0,0,1,234,328.87C228.57,328.72,224.21,324.5,224.47,319.63Z" transform="translate(-110.36 -245.42)"/></g></svg>